<?xml version="1.0" standalone="no"?><!DOCTYPE svg PUBLIC "-//W3C//DTD SVG 1.1//EN" "http://www.w3.org/Graphics/SVG/1.1/DTD/svg11.dtd"><svg t="1639379600554" class="icon" viewBox="0 0 1061 1024" version="1.1" xmlns="http://www.w3.org/2000/svg" p-id="5461" width="49.734375" height="48" xmlns:xlink="http://www.w3.org/1999/xlink"><defs><style type="text/css"></style></defs><path d="M1061.925926 859.211852c0-152.841481-92.766815-283.45837-223.914667-336.706371a242.612148 242.612148 0 0 0 105.434074-200.969481c0-114.384593-78.01363-210.10963-182.689185-235.026963a4.323556 4.323556 0 0 0-2.806518 0.18963c-1.137778-0.075852-2.313481-0.379259-3.527111-0.37926a40.922074 40.922074 0 0 0-40.504889 41.33926c0 20.631704 14.829037 37.622519 34.171259 40.694518 3.489185 1.441185 7.964444 2.503111 8.154074 2.616889a156.558222 156.558222 0 0 1 104.25837 148.404148c0 76.951704-54.272 140.894815-125.914074 154.206815-0.075852 0-0.18963 0.227556-0.265481 0.265482-24.196741 1.744593-42.856296 21.997037-42.704593 46.269629 0 25.031111 19.493926 45.283556 43.804445 46.26963 0.151704 0.113778 0.303407 0.379259 0.493037 0.379259 143.928889 14.980741 246.025481 140.09837 246.025481 292.446815 0 22.565926 17.901037 40.846222 39.973926 40.846222 21.541926 0 39.025778-17.445926 39.860148-39.215407l0.151704-0.606815v-1.024z m-479.459556-329.955556a290.247111 290.247111 0 0 0 125.800297-240.222815c0-159.668148-126.78637-289.033481-283.230815-289.033481S141.842963 129.365333 141.842963 289.033481a290.322963 290.322963 0 0 0 125.838222 240.222815C110.819556 593.08563 0 749.416296 0 932.257185c0 10.24 0.568889 20.404148 1.365333 30.492445h0.037926a39.822222 39.822222 0 0 0 39.442963 40.239407c21.845333 0 39.480889-18.052741 39.480889-40.239407 0-1.251556-0.227556-2.465185-0.341333-3.678815a312.661333 312.661333 0 0 1-1.403259-26.81363c0-195.318519 155.117037-353.621333 346.529185-353.621333 191.29837 0 346.415407 158.340741 346.415407 353.545481 0 9.481481-0.644741 18.735407-1.479111 27.951408l-0.075852 1.403259v1.21363h0.075852a39.822222 39.822222 0 0 0 39.367111 39.063703 39.784296 39.784296 0 0 0 39.329185-39.063703h0.113778c0.758519-10.088296 1.251556-20.214519 1.251556-30.492445 0-182.802963-110.819556-339.095704-267.64326-402.962963v-0.037926z m-157.392592-32.616296c-112.336593 0-203.472593-92.918519-203.472593-207.606519s91.060148-207.606519 203.434667-207.606518c112.336593 0 203.472593 92.918519 203.472592 207.606518 0 114.650074-91.060148 207.644444-203.472592 207.644445z" fill="#1afa29" p-id="5462"></path></svg>